<mxfile host="app.diagrams.net" modified="2022-08-27T03:20:03.203Z" agent="5.0 (Macintosh; Intel Mac OS X 10_15_7) AppleWebKit/605.1.15 (KHTML, like Gecko) Version/15.6.1 Safari/605.1.15" etag="PAeRUYHECWX7wcm8AnIA" version="20.2.7" type="github">
  <diagram id="tLhnEmHgQB_hn6O6wD9O" name="第 1 页">
    <mxGraphModel dx="1298" dy="842" grid="1" gridSize="10" guides="1" tooltips="1" connect="1" arrows="1" fold="1" page="1" pageScale="1" pageWidth="827" pageHeight="1169" math="0" shadow="0">
      <root>
        <mxCell id="0" />
        <mxCell id="1" parent="0" />
      </root>
    </mxGraphModel>
  </diagram>
</mxfile>
